# xmcd CD database file
#
# Track frame offsets:
#	150
#	10665
#	34840
#	54597
#	72590
#	86747
#	105015
#	130365
#	146135
#	170482
#	193940
#
# Disc length: 2937 seconds
#
# Revision: 4
# Processed by: cddbd v1.5.2PL0 Copyright (c) Steve Scherf et al.
# Submitted via: CDex 1.51
#
DISCID=9a0b770b
DTITLE=AIR - SINGLES disc 2
DYEAR=2004
DGENRE=Rock
TTITLE0=Rush And Rush
TTITLE1=Neo Kamikaze
TTITLE2=Crawl
TTITLE3=New Song
TTITLE4=Me,We.
TTITLE5=Right Riot feat.Kj
TTITLE6=Last Dance
TTITLE7=One Way
TTITLE8=Starlet
TTITLE9=Bicyclist
TTITLE10=Overture
EXTD=YEAR: 2004
EXTT0=
EXTT1=
EXTT2=
EXTT3=
EXTT4=
EXTT5=
EXTT6=
EXTT7=
EXTT8=
EXTT9=
EXTT10=
PLAYORDER=
